# xmcd CD database file
#
# Track frame offsets:
#	150
#	31600
#	58047
#	93942
#	132832
#	159212
#	194600
#	228770
#	255257
#	285945
#	310330
#
# Disc length: 4293 seconds
#
# Revision: 0
# Processed by: cddbd v1.5.1PL0 Copyright (c) Steve Scherf et al.
# Submitted via: CDex 1.51
#
DISCID=7e10c30b
DTITLE=Micha³ Tokaj Trio - Brid Alone
DYEAR=2003
DGENRE=Jazz
TTITLE0=Dawn
TTITLE1=Everytime We Say Goodbye
TTITLE2=Skyline
TTITLE3=Pentulum
TTITLE4=One Day Before
TTITLE5=Lines For Oles
TTITLE6=Chlopi
TTITLE7=Pentatonic
TTITLE8=Tears
TTITLE9=Beginner's Bane
TTITLE10=Bird Alone
EXTD=YEAR: 2003
EXTT0=
EXTT1=
EXTT2=
EXTT3=
EXTT4=
EXTT5=
EXTT6=
EXTT7=
EXTT8=
EXTT9=
EXTT10=
PLAYORDER=
